<mxfile host="app.diagrams.net" modified="2022-02-21T08:14:03.024Z" agent="5.0 (Windows NT 10.0; Win64; x64) AppleWebKit/537.36 (KHTML, like Gecko) Chrome/98.0.4758.102 Safari/537.36" etag="ufpSUYdydNEJs4L57irZ" version="16.5.4" type="github">
  <diagram id="TOs7cVzKpCyQhLWn3VBo" name="Page-1">
    <mxGraphModel dx="1696" dy="819" grid="1" gridSize="10" guides="1" tooltips="1" connect="1" arrows="1" fold="1" page="1" pageScale="1" pageWidth="827" pageHeight="1169" math="0" shadow="0">
      <root>
        <mxCell id="0" />
        <mxCell id="1" parent="0" />
        <mxCell id="2vI4F3H8Q2DFBP5VW71m-11" value="BOM 语义知识服务模块" style="rounded=0;whiteSpace=wrap;html=1;fontSize=13;fillColor=none;verticalAlign=bottom;fontStyle=0;align=right;dashed=1;" parent="1" vertex="1">
          <mxGeometry x="37" y="110" width="393" height="220" as="geometry" />
        </mxCell>
        <mxCell id="2vI4F3H8Q2DFBP5VW71m-10" value="各制造服务平台" style="rounded=1;whiteSpace=wrap;html=1;fillColor=none;verticalAlign=bottom;fontSize=13;fontStyle=0" parent="1" vertex="1">
          <mxGeometry x="47" y="120" width="353" height="60" as="geometry" />
        </mxCell>
        <mxCell id="2vI4F3H8Q2DFBP5VW71m-4" value="制造域" style="rounded=1;whiteSpace=wrap;html=1;fillColor=#dae8fc;strokeColor=#6c8ebf;fontStyle=0" parent="1" vertex="1">
          <mxGeometry x="236" y="127" width="60" height="30" as="geometry" />
        </mxCell>
        <mxCell id="2vI4F3H8Q2DFBP5VW71m-12" value="业务逻辑组件" style="shape=process;whiteSpace=wrap;html=1;backgroundOutline=1;fontSize=13;fontStyle=0" parent="1" vertex="1">
          <mxGeometry x="173" y="210" width="120" height="30" as="geometry" />
        </mxCell>
        <mxCell id="2vI4F3H8Q2DFBP5VW71m-14" value="" style="shape=flexArrow;endArrow=classic;startArrow=classic;html=1;rounded=0;fontSize=13;width=26;endSize=1.88;startSize=1.88;startWidth=25;fontStyle=0;exitX=0.5;exitY=0;exitDx=0;exitDy=0;" parent="1" edge="1">
          <mxGeometry width="100" height="100" relative="1" as="geometry">
            <mxPoint x="233" y="210" as="sourcePoint" />
            <mxPoint x="233" y="180" as="targetPoint" />
          </mxGeometry>
        </mxCell>
        <mxCell id="2vI4F3H8Q2DFBP5VW71m-17" value="" style="shape=flexArrow;endArrow=classic;startArrow=classic;html=1;rounded=0;fontSize=13;width=27;endSize=1.88;startSize=1.88;startWidth=21;fontStyle=0;exitX=0.5;exitY=0;exitDx=0;exitDy=0;" parent="1" edge="1">
          <mxGeometry width="100" height="100" relative="1" as="geometry">
            <mxPoint x="234" y="270" as="sourcePoint" />
            <mxPoint x="234" y="240" as="targetPoint" />
          </mxGeometry>
        </mxCell>
        <mxCell id="2vI4F3H8Q2DFBP5VW71m-18" value="BOM 语义知识映射模块" style="rounded=0;whiteSpace=wrap;html=1;fontSize=13;fillColor=none;verticalAlign=bottom;fontStyle=0;align=right;dashed=1;" parent="1" vertex="1">
          <mxGeometry x="37" y="360" width="393" height="160" as="geometry" />
        </mxCell>
        <mxCell id="2vI4F3H8Q2DFBP5VW71m-19" value="BOM多视图" style="rounded=1;whiteSpace=wrap;html=1;fillColor=none;verticalAlign=bottom;fontSize=13;fontStyle=0" parent="1" vertex="1">
          <mxGeometry x="152" y="368" width="218" height="130" as="geometry" />
        </mxCell>
        <mxCell id="2vI4F3H8Q2DFBP5VW71m-20" value="MBOM" style="rounded=1;whiteSpace=wrap;html=1;fillColor=#dae8fc;strokeColor=#6c8ebf;fontStyle=0" parent="1" vertex="1">
          <mxGeometry x="177" y="442" width="60" height="30" as="geometry" />
        </mxCell>
        <mxCell id="2vI4F3H8Q2DFBP5VW71m-21" value="PBOM" style="rounded=1;whiteSpace=wrap;html=1;fillColor=#e1d5e7;strokeColor=#9673a6;fontStyle=0" parent="1" vertex="1">
          <mxGeometry x="277" y="389" width="60" height="30" as="geometry" />
        </mxCell>
        <mxCell id="2vI4F3H8Q2DFBP5VW71m-22" value="EBOM" style="rounded=1;whiteSpace=wrap;html=1;fillColor=#d5e8d4;strokeColor=#82b366;fontStyle=0" parent="1" vertex="1">
          <mxGeometry x="177" y="389" width="60" height="30" as="geometry" />
        </mxCell>
        <mxCell id="2vI4F3H8Q2DFBP5VW71m-23" value="..." style="rounded=1;whiteSpace=wrap;html=1;fillColor=#f5f5f5;strokeColor=#666666;fontStyle=0;fontColor=#333333;" parent="1" vertex="1">
          <mxGeometry x="315" y="127" width="60" height="30" as="geometry" />
        </mxCell>
        <mxCell id="2vI4F3H8Q2DFBP5VW71m-24" value="..." style="rounded=1;whiteSpace=wrap;html=1;fillColor=#f5f5f5;strokeColor=#666666;fontStyle=0;fontColor=#333333;" parent="1" vertex="1">
          <mxGeometry x="277" y="442" width="60" height="30" as="geometry" />
        </mxCell>
        <mxCell id="2vI4F3H8Q2DFBP5VW71m-25" value="语&lt;br&gt;义&lt;br&gt;视&lt;br&gt;图&lt;br&gt;映&lt;br&gt;射" style="shape=process;whiteSpace=wrap;html=1;backgroundOutline=1;fontSize=13;fontStyle=0;shadow=1;rotation=90;horizontal=0;" parent="1" vertex="1">
          <mxGeometry x="20" y="419" width="132" height="30" as="geometry" />
        </mxCell>
        <mxCell id="2vI4F3H8Q2DFBP5VW71m-27" value="" style="shape=flexArrow;endArrow=classic;startArrow=classic;html=1;rounded=0;fontSize=13;width=18;endSize=1.88;startSize=1.88;startWidth=21;entryX=0.5;entryY=1;entryDx=0;entryDy=0;fontStyle=0" parent="1" source="2vI4F3H8Q2DFBP5VW71m-18" target="2vI4F3H8Q2DFBP5VW71m-11" edge="1">
          <mxGeometry width="100" height="100" relative="1" as="geometry">
            <mxPoint x="258" y="350" as="sourcePoint" />
            <mxPoint x="257.5" y="320" as="targetPoint" />
          </mxGeometry>
        </mxCell>
        <mxCell id="2vI4F3H8Q2DFBP5VW71m-29" value="BOM 语义知识统一模块" style="rounded=0;whiteSpace=wrap;html=1;fontSize=13;fillColor=none;verticalAlign=bottom;fontStyle=0;align=right;dashed=1;" parent="1" vertex="1">
          <mxGeometry x="-380" y="365" width="380" height="150" as="geometry" />
        </mxCell>
        <mxCell id="2vI4F3H8Q2DFBP5VW71m-35" value="" style="edgeStyle=orthogonalEdgeStyle;rounded=0;orthogonalLoop=1;jettySize=auto;html=1;fontSize=13;shape=flexArrow;width=12;endSize=5.53;fontStyle=0;exitX=1;exitY=0.5;exitDx=0;exitDy=0;entryX=0;entryY=0.5;entryDx=0;entryDy=0;" parent="1" source="2vI4F3H8Q2DFBP5VW71m-29" target="2vI4F3H8Q2DFBP5VW71m-18" edge="1">
          <mxGeometry relative="1" as="geometry" />
        </mxCell>
        <mxCell id="2vI4F3H8Q2DFBP5VW71m-32" value="全局本体" style="rounded=1;whiteSpace=wrap;html=1;fontSize=13;fillColor=#d5e8d4;fontStyle=0;strokeColor=#82b366;" parent="1" vertex="1">
          <mxGeometry x="-253" y="441.5" width="120" height="35" as="geometry" />
        </mxCell>
        <mxCell id="2vI4F3H8Q2DFBP5VW71m-33" value="局部本体" style="rounded=1;whiteSpace=wrap;html=1;fontSize=13;fillColor=#dae8fc;fontStyle=0;strokeColor=#6c8ebf;" parent="1" vertex="1">
          <mxGeometry x="-253" y="377" width="120" height="35" as="geometry" />
        </mxCell>
        <mxCell id="2vI4F3H8Q2DFBP5VW71m-39" value="BOM 语义统一" style="rounded=0;whiteSpace=wrap;html=1;shadow=0;fontSize=13;strokeWidth=0;fillColor=none;strokeColor=none;fontStyle=0" parent="1" vertex="1">
          <mxGeometry x="-183" y="417.5" width="120" height="20" as="geometry" />
        </mxCell>
        <mxCell id="gLA2mDFHcOvmpZzIXoVf-2" value="BOM 语义知识表示模块" style="rounded=0;whiteSpace=wrap;html=1;fontSize=13;fillColor=none;verticalAlign=bottom;fontStyle=0;align=right;dashed=1;" vertex="1" parent="1">
          <mxGeometry x="-380" y="110" width="380" height="220" as="geometry" />
        </mxCell>
        <mxCell id="gLA2mDFHcOvmpZzIXoVf-3" value="&amp;nbsp;BOM 语义模型" style="rounded=1;whiteSpace=wrap;html=1;fontSize=13;fontStyle=0;" vertex="1" parent="1">
          <mxGeometry x="-253" y="267.5" width="120" height="35" as="geometry" />
        </mxCell>
        <mxCell id="gLA2mDFHcOvmpZzIXoVf-4" value="本体语言" style="rounded=1;whiteSpace=wrap;html=1;fontSize=13;fillColor=#f5f5f5;fontStyle=0;fontColor=#333333;strokeColor=#666666;" vertex="1" parent="1">
          <mxGeometry x="-253" y="130" width="120" height="35" as="geometry" />
        </mxCell>
        <mxCell id="gLA2mDFHcOvmpZzIXoVf-5" value="语义 Web" style="rounded=1;whiteSpace=wrap;html=1;fontSize=13;fillColor=#d5e8d4;fontStyle=0;strokeColor=#82b366;" vertex="1" parent="1">
          <mxGeometry x="-253" y="165" width="120" height="35" as="geometry" />
        </mxCell>
        <mxCell id="gLA2mDFHcOvmpZzIXoVf-6" value="描述逻辑" style="rounded=1;whiteSpace=wrap;html=1;fontSize=13;fillColor=#dae8fc;fontStyle=0;strokeColor=#6c8ebf;" vertex="1" parent="1">
          <mxGeometry x="-253" y="200" width="120" height="35" as="geometry" />
        </mxCell>
        <mxCell id="gLA2mDFHcOvmpZzIXoVf-7" value="" style="edgeStyle=orthogonalEdgeStyle;rounded=0;orthogonalLoop=1;jettySize=auto;html=1;fontSize=13;shape=flexArrow;width=11;endSize=3.16;fontStyle=0;exitX=0.5;exitY=1;exitDx=0;exitDy=0;entryX=0.5;entryY=0;entryDx=0;entryDy=0;" edge="1" parent="1" source="gLA2mDFHcOvmpZzIXoVf-6" target="gLA2mDFHcOvmpZzIXoVf-3">
          <mxGeometry relative="1" as="geometry">
            <mxPoint x="-193" y="265" as="sourcePoint" />
            <mxPoint x="-193.5" y="240" as="targetPoint" />
          </mxGeometry>
        </mxCell>
        <mxCell id="gLA2mDFHcOvmpZzIXoVf-8" value="形式化描述" style="rounded=0;whiteSpace=wrap;html=1;shadow=0;fontSize=13;strokeWidth=1;fillColor=none;strokeColor=none;fontStyle=0" vertex="1" parent="1">
          <mxGeometry x="-303" y="240" width="120" height="20" as="geometry" />
        </mxCell>
        <mxCell id="gLA2mDFHcOvmpZzIXoVf-9" value="逻辑推理" style="rounded=0;whiteSpace=wrap;html=1;shadow=0;fontSize=13;strokeWidth=0;fillColor=none;strokeColor=none;fontStyle=0" vertex="1" parent="1">
          <mxGeometry x="-203" y="240" width="120" height="20" as="geometry" />
        </mxCell>
        <mxCell id="gLA2mDFHcOvmpZzIXoVf-10" value="" style="shape=flexArrow;endArrow=classic;html=1;rounded=0;exitX=0.5;exitY=1;exitDx=0;exitDy=0;endWidth=21;endSize=3.23;" edge="1" parent="1" source="2vI4F3H8Q2DFBP5VW71m-33" target="2vI4F3H8Q2DFBP5VW71m-32">
          <mxGeometry width="50" height="50" relative="1" as="geometry">
            <mxPoint x="80" y="440" as="sourcePoint" />
            <mxPoint x="130" y="390" as="targetPoint" />
          </mxGeometry>
        </mxCell>
        <mxCell id="gLA2mDFHcOvmpZzIXoVf-12" value="" style="shape=flexArrow;endArrow=classic;html=1;rounded=0;exitX=0.5;exitY=1;exitDx=0;exitDy=0;entryX=0.5;entryY=0;entryDx=0;entryDy=0;endWidth=25;endSize=6;width=14;" edge="1" parent="1" source="gLA2mDFHcOvmpZzIXoVf-2" target="2vI4F3H8Q2DFBP5VW71m-29">
          <mxGeometry width="50" height="50" relative="1" as="geometry">
            <mxPoint x="80" y="440" as="sourcePoint" />
            <mxPoint x="130" y="390" as="targetPoint" />
          </mxGeometry>
        </mxCell>
        <mxCell id="gLA2mDFHcOvmpZzIXoVf-13" value="设计域" style="rounded=1;whiteSpace=wrap;html=1;fillColor=#d5e8d4;strokeColor=#82b366;fontStyle=0" vertex="1" parent="1">
          <mxGeometry x="77" y="127" width="60" height="30" as="geometry" />
        </mxCell>
        <mxCell id="gLA2mDFHcOvmpZzIXoVf-14" value="工艺域" style="rounded=1;whiteSpace=wrap;html=1;fillColor=#e1d5e7;strokeColor=#9673a6;fontStyle=0" vertex="1" parent="1">
          <mxGeometry x="156" y="127" width="60" height="30" as="geometry" />
        </mxCell>
        <mxCell id="gLA2mDFHcOvmpZzIXoVf-15" value="" style="shape=flexArrow;endArrow=classic;html=1;rounded=0;entryX=0;entryY=0.5;entryDx=0;entryDy=0;exitX=0.5;exitY=0;exitDx=0;exitDy=0;" edge="1" parent="1" source="2vI4F3H8Q2DFBP5VW71m-25" target="2vI4F3H8Q2DFBP5VW71m-19">
          <mxGeometry width="50" height="50" relative="1" as="geometry">
            <mxPoint x="67" y="400" as="sourcePoint" />
            <mxPoint x="117" y="350" as="targetPoint" />
          </mxGeometry>
        </mxCell>
        <mxCell id="gLA2mDFHcOvmpZzIXoVf-18" value="Web 服务" style="ellipse;whiteSpace=wrap;html=1;fontSize=13;fillColor=none;fontStyle=0" vertex="1" parent="1">
          <mxGeometry x="158" y="270" width="150" height="40" as="geometry" />
        </mxCell>
      </root>
    </mxGraphModel>
  </diagram>
</mxfile>
